<svg xmlns="http://www.w3.org/2000/svg" width="960" height="300" viewBox="0 0 960 300">
  <rect width="960" height="300" fill="#f6f1e7"/>
  <text x="40" y="24" font-family="Arial" font-size="16" fill="#1a1814">Синтетическая стрелка, не маршрут 10</text>
  <polyline points="40.0,246.2 170.0,246.2 560.0,246.2" fill="none" stroke="#2f6f4e" stroke-width="3"/>
  <polyline points="40.0,246.2 170.0,246.2 536.5,45.8" fill="none" stroke="#8c4a3a" stroke-width="3"/>
  <text x="40" y="276" font-family="Arial" font-size="13" fill="#1a1814">общий ствол 40 м, затем 20°. Зелёная — истина.</text>
  <rect x="600" y="36" width="320" height="220" fill="#fff" stroke="#1a1814"/>
  <polyline points="600.0,146.0 620.0,146.0 640.0,146.0 660.0,146.0 680.0,146.0 700.0,146.0 720.0,146.0 740.0,146.0 760.0,146.0 780.0,125.5 800.0,65.0 820.0,37.1 840.0,36.0 860.0,36.0 880.0,36.0 900.0,36.0 920.0,36.0" fill="none" stroke="#2f6f4e" stroke-width="2"/>
  <polyline points="600.0,146.0 620.0,146.0 640.0,146.0 660.0,146.0 680.0,146.0 700.0,146.0 720.0,146.0 740.0,146.0 760.0,146.0 780.0,166.5 800.0,227.0 820.0,254.9 840.0,256.0 860.0,256.0 880.0,256.0 900.0,256.0 920.0,256.0" fill="none" stroke="#8c4a3a" stroke-width="2"/>
  <text x="600" y="24" font-family="Arial" font-size="16" fill="#1a1814">Вес гипотезы</text>
  <text x="600" y="276" font-family="Arial" font-size="13" fill="#1a1814">к 8 с: прямая 1.000, боковая 0.000</text>
</svg>
